<!-- Generator: Adobe Illustrator 22.0.0, SVG Export Plug-In  -->
<svg version="1.1"
	 xmlns="http://www.w3.org/2000/svg" xmlns:xlink="http://www.w3.org/1999/xlink" xmlns:a="http://ns.adobe.com/AdobeSVGViewerExtensions/3.0/"
	 x="0px" y="0px" width="1243.308px" height="207.124px" viewBox="0 0 1243.308 207.124"
	 style="enable-background:new 0 0 1243.308 207.124;" xml:space="preserve">
<style type="text/css">
	.st0{fill:url(#SVGID_1_);stroke:#FFFFFF;stroke-miterlimit:10;}
	.st1{fill:url(#SVGID_2_);stroke:#FFFFFF;stroke-miterlimit:10;}
	.st2{fill:none;}
	.st3{fill:#FFFFFF;}
	.st4{fill:#FFFFFF;stroke:#000000;stroke-miterlimit:10;}
	.st5{fill:url(#SVGID_3_);}
	.st6{fill:url(#SVGID_4_);}
	.st7{fill:url(#SVGID_5_);stroke:#FFFFFF;stroke-width:0.75;stroke-miterlimit:10;}
	.st8{fill:url(#SVGID_6_);stroke:#FFFFFF;stroke-width:3;stroke-miterlimit:10;}
	.st9{fill:url(#SVGID_7_);stroke:#FFFFFF;stroke-width:3;stroke-miterlimit:10;}
	.st10{fill:url(#SVGID_8_);stroke:#FFFFFF;stroke-miterlimit:10;}
	.st11{fill:url(#SVGID_9_);stroke:#FFFFFF;stroke-miterlimit:10;}
	.st12{fill:url(#SVGID_10_);stroke:#FFFFFF;stroke-miterlimit:10;}
	.st13{fill:url(#SVGID_11_);stroke:#FFFFFF;stroke-miterlimit:10;}
	.st14{fill:url(#SVGID_12_);stroke:#FFFFFF;stroke-miterlimit:10;}
	.st15{fill:url(#SVGID_13_);stroke:#FFFFFF;stroke-miterlimit:10;}
	.st16{fill:url(#SVGID_14_);stroke:#FFFFFF;stroke-miterlimit:10;}
	.st17{fill:url(#SVGID_15_);stroke:#FFFFFF;stroke-miterlimit:10;}
	.st18{fill:url(#SVGID_16_);stroke:#FFFFFF;stroke-miterlimit:10;}
	.st19{fill:url(#SVGID_17_);stroke:#FFFFFF;stroke-miterlimit:10;}
	.st20{fill:url(#SVGID_18_);stroke:#FFFFFF;stroke-miterlimit:10;}
	.st21{fill:url(#SVGID_19_);stroke:#FFFFFF;stroke-miterlimit:10;}
	.st22{fill:url(#SVGID_20_);}
	.st23{fill:url(#SVGID_21_);}
	.st24{fill:url(#SVGID_22_);stroke:#FFFFFF;stroke-width:0.75;stroke-miterlimit:10;}
	.st25{fill:url(#SVGID_23_);stroke:#FFFFFF;stroke-width:3;stroke-miterlimit:10;}
	.st26{fill:url(#SVGID_24_);stroke:#FFFFFF;stroke-width:3;stroke-miterlimit:10;}
	.st27{fill:url(#SVGID_25_);stroke:#FFFFFF;stroke-miterlimit:10;}
	.st28{fill:url(#SVGID_26_);stroke:#FFFFFF;stroke-miterlimit:10;}
	.st29{fill:url(#SVGID_27_);stroke:#FFFFFF;stroke-miterlimit:10;}
	.st30{fill:url(#SVGID_28_);stroke:#FFFFFF;stroke-miterlimit:10;}
	.st31{fill:url(#SVGID_29_);stroke:#FFFFFF;stroke-miterlimit:10;}
	.st32{fill:url(#SVGID_30_);stroke:#FFFFFF;stroke-miterlimit:10;}
	.st33{fill:url(#SVGID_31_);stroke:#FFFFFF;stroke-miterlimit:10;}
	.st34{fill:url(#SVGID_32_);stroke:#FFFFFF;stroke-miterlimit:10;}
	.st35{fill:url(#SVGID_33_);stroke:#FFFFFF;stroke-miterlimit:10;}
	.st36{fill:url(#SVGID_34_);stroke:#FFFFFF;stroke-miterlimit:10;}
</style>
<defs>
</defs>
<linearGradient id="SVGID_1_" gradientUnits="userSpaceOnUse" x1="400.4828" y1="207.1242" x2="400.4828" y2="207.1242">
	<stop  offset="0" style="stop-color:#ECFF2A"/>
	<stop  offset="0.089" style="stop-color:#E3FF28"/>
	<stop  offset="0.2371" style="stop-color:#C9FF21"/>
	<stop  offset="0.4247" style="stop-color:#A0FF16"/>
	<stop  offset="0.5216" style="stop-color:#88FF10"/>
	<stop  offset="1" style="stop-color:#00CC00"/>
</linearGradient>
<path class="st0" d="M400.483,207.124"/>
<linearGradient id="SVGID_2_" gradientUnits="userSpaceOnUse" x1="0.5" y1="100.9808" x2="1242.8077" y2="100.9808">
	<stop  offset="0" style="stop-color:#0081BF"/>
	<stop  offset="0.0568" style="stop-color:#0476BD"/>
	<stop  offset="0.1554" style="stop-color:#115AB9"/>
	<stop  offset="0.2832" style="stop-color:#242CB3"/>
	<stop  offset="0.3821" style="stop-color:#3504AD"/>
	<stop  offset="0.9769" style="stop-color:#8C00AA"/>
</linearGradient>
<rect x="0.5" y="0.5" class="st1" width="1242.308" height="200.962"/>
<g>
	<rect x="514.236" y="34.026" class="st2" width="331.456" height="81.505"/>
	<path class="st3" d="M576.986,36.155h5.826c7.796,0,9.683,4.432,9.683,11.817v3.365c0,7.714-1.148,13.622-10.257,13.622h-3.857
		v25.85h-1.395V36.155z M578.381,63.728h4.185c7.55,0,8.534-5.005,8.534-12.473v-3.118c0-6.729-1.395-10.75-8.37-10.75h-4.349
		V63.728z"/>
	<path class="st3" d="M637.298,47.808v30.773c0,8.37-2.215,12.966-8.862,12.966c-5.745,0-8.863-3.283-8.863-12.802V47.89
		c0-10.011,4.267-12.473,8.945-12.473C633.195,35.417,637.298,37.715,637.298,47.808z M620.968,48.301v29.952
		c0,7.714,1.805,12.063,7.468,12.063c6.482,0,7.467-5.581,7.467-11.407V48.219c0-7.222-1.805-11.571-7.467-11.571
		C623.758,36.648,620.968,39.684,620.968,48.301z"/>
	<path class="st3" d="M671.678,90.808l-7.96-54.653h1.395c2.462,16.495,7.386,49.976,7.468,53.258h0.082
		c0.575-5.662,5.252-37.01,7.55-53.258h1.97c2.216,15.182,7.058,47.268,7.55,53.258h0.082c0.164-3.036,5.744-36.682,8.452-53.258
		h1.396l-8.945,54.653h-1.97c-2.215-15.756-7.139-48.581-7.549-53.34h-0.082c-0.247,4.76-5.252,38.241-7.55,53.34H671.678z"/>
	<path class="st3" d="M740.112,61.841h-11.57v27.737h13.048l-0.329,1.231h-14.114V36.155h13.868v1.231h-12.473V60.61h11.57V61.841z"
		/>
	<path class="st3" d="M769.569,62.825v27.983h-1.396V36.155h6.483c7.139,0,9.272,3.775,9.272,11.653v2.38
		c0,8.617-2.216,11.161-6.072,12.063c4.185,1.313,5.662,4.678,5.662,10.504c0,4.76,0.164,14.936,0.574,18.054h-1.395
		c-0.411-2.216-0.493-13.951-0.575-18.3c-0.164-7.632-2.79-9.683-8.37-9.683H769.569z M769.569,61.595H774
		c6.565,0,8.535-3.037,8.535-11.407v-2.38c0-5.908-0.985-10.422-7.96-10.422h-5.006V61.595z"/>
</g>
<g>
	<rect x="544.248" y="103.881" class="st2" width="271.594" height="81.505"/>
	<path class="st3" d="M576.038,106.529h4.7v51.588h20.239l-0.847,4.23h-24.092V106.529z"/>
	<path class="st3" d="M615.852,143.292l-4.529,19.056h-4.7c0-0.001,13.685-55.817,13.685-55.818h6.109l14.18,55.818h-5.055
		l-4.598-19.056H615.852z M629.884,139.036c-3.666-14.822-5.915-23.887-6.61-28.007h-0.177c-0.794,4.756-3.263,15.403-6.252,28.007
		H629.884z"/>
	<path class="st3" d="M649.293,106.529h13.512c8.584,0,14.333,5.498,14.333,15.156c0,9.605-5.161,16.012-15.278,16.012h-7.867v24.65
		h-4.699V106.529z M653.992,133.559h7.395c7.112,0,10.913-3.853,10.913-11.901c0-6.38-3.342-10.979-10.146-10.979h-8.162V133.559z"
		/>
	<path class="st3" d="M695.574,110.799h-12.631v-4.27h29.961v4.27h-12.631v51.549h-4.699V110.799z"/>
	<path class="st3" d="M748.327,133.925c0,18.53-4.16,29.201-15.955,29.201c-11.305,0-15.655-10.244-15.655-29.02
		c0-18.616,5.128-28.341,15.872-28.341C743.921,105.764,748.327,115.178,748.327,133.925z M721.594,133.954
		c0,16.896,3.653,24.968,10.956,24.968c7.493,0,10.899-7.966,10.899-24.83c0-17.451-3.695-24.111-10.969-24.111
		C725.358,109.981,721.594,117.74,721.594,133.954z"/>
	<path class="st3" d="M759.717,106.529h13.512c8.584,0,14.333,5.498,14.333,15.156c0,9.605-5.161,16.012-15.278,16.012h-7.867v24.65
		h-4.699V106.529z M764.416,133.559h7.395c7.112,0,10.913-3.853,10.913-11.901c0-6.38-3.342-10.979-10.146-10.979h-8.162V133.559z"
		/>
</g>
<path class="st4" d="M421.37,72.92"/>
<circle class="st3" cx="490.768" cy="100.407" r="66.055"/>
<linearGradient id="SVGID_3_" gradientUnits="userSpaceOnUse" x1="438.4839" y1="101.9053" x2="543.8268" y2="101.9053">
	<stop  offset="0" style="stop-color:#0081BF"/>
	<stop  offset="0.0568" style="stop-color:#0476BD"/>
	<stop  offset="0.1554" style="stop-color:#115AB9"/>
	<stop  offset="0.2832" style="stop-color:#242CB3"/>
	<stop  offset="0.3821" style="stop-color:#3504AD"/>
	<stop  offset="0.9769" style="stop-color:#8C00AA"/>
</linearGradient>
<path class="st5" d="M543.827,101.264c0,29.088-23.582,52.669-52.671,52.669c-29.867,0-52.692-25.405-52.671-52.669
	c0.019-24.234,17.84-43.725,36.418-50.114c6.466-2.223,27.102-1.399,33.892,1.442C525.624,59.632,543.827,77.756,543.827,101.264z"
	/>
<circle class="st3" cx="490.162" cy="100.458" r="41.406"/>
<path class="st3" d="M490.533,86.611L490.533,86.611c8.753,0,15.915-7.162,15.915-15.915V36.448c0-8.753-7.162-15.915-15.915-15.915
	h0c-8.753,0-15.915,7.162-15.915,15.915v34.249C474.618,79.449,481.78,86.611,490.533,86.611z"/>
<linearGradient id="SVGID_4_" gradientUnits="userSpaceOnUse" x1="482.5749" y1="54.7213" x2="498.8466" y2="54.7213">
	<stop  offset="0" style="stop-color:#0081BF"/>
	<stop  offset="0.0568" style="stop-color:#0476BD"/>
	<stop  offset="0.1554" style="stop-color:#115AB9"/>
	<stop  offset="0.2832" style="stop-color:#242CB3"/>
	<stop  offset="0.3821" style="stop-color:#3504AD"/>
	<stop  offset="0.9769" style="stop-color:#8C00AA"/>
</linearGradient>
<path class="st6" d="M490.711,79.756L490.711,79.756c-4.475,0-8.136-3.661-8.136-8.136V37.823c0-4.475,3.661-8.136,8.136-8.136h0
	c4.475,0,8.136,3.661,8.136,8.136V71.62C498.847,76.094,495.186,79.756,490.711,79.756z"/>
<linearGradient id="SVGID_5_" gradientUnits="userSpaceOnUse" x1="413.4249" y1="50.9653" x2="413.4249" y2="50.9653">
	<stop  offset="0" style="stop-color:#000000"/>
	<stop  offset="0.022" style="stop-color:#090408"/>
	<stop  offset="0.0586" style="stop-color:#230F1D"/>
	<stop  offset="0.1053" style="stop-color:#4D2040"/>
	<stop  offset="0.1603" style="stop-color:#863871"/>
	<stop  offset="0.2215" style="stop-color:#CF56AE"/>
	<stop  offset="0.259" style="stop-color:#FF6AD6"/>
	<stop  offset="0.2935" style="stop-color:#ED74DA"/>
	<stop  offset="0.3628" style="stop-color:#BE8DE4"/>
	<stop  offset="0.4597" style="stop-color:#72B5F4"/>
	<stop  offset="0.5213" style="stop-color:#3FD1FF"/>
	<stop  offset="0.7575" style="stop-color:#FFFFFF"/>
	<stop  offset="1" style="stop-color:#000000"/>
</linearGradient>
<path class="st7" d="M413.425,50.965"/>
<linearGradient id="SVGID_6_" gradientUnits="userSpaceOnUse" x1="425.948" y1="55.267" x2="425.948" y2="55.267">
	<stop  offset="0" style="stop-color:#ECFF2A"/>
	<stop  offset="0.0469" style="stop-color:#E3FF29"/>
	<stop  offset="0.125" style="stop-color:#C9FF26"/>
	<stop  offset="0.2246" style="stop-color:#9FFF22"/>
	<stop  offset="0.3418" style="stop-color:#66FF1B"/>
	<stop  offset="0.4725" style="stop-color:#1DFF13"/>
	<stop  offset="0.5216" style="stop-color:#00FF10"/>
	<stop  offset="1" style="stop-color:#00BF7C"/>
</linearGradient>
<path class="st8" d="M425.948,55.267"/>
<linearGradient id="SVGID_7_" gradientUnits="userSpaceOnUse" x1="500.6245" y1="45.7811" x2="500.6245" y2="45.7811">
	<stop  offset="0" style="stop-color:#ECFF2A"/>
	<stop  offset="0.0469" style="stop-color:#E3FF29"/>
	<stop  offset="0.125" style="stop-color:#C9FF26"/>
	<stop  offset="0.2246" style="stop-color:#9FFF22"/>
	<stop  offset="0.3418" style="stop-color:#66FF1B"/>
	<stop  offset="0.4725" style="stop-color:#1DFF13"/>
	<stop  offset="0.5216" style="stop-color:#00FF10"/>
	<stop  offset="1" style="stop-color:#00BF7C"/>
</linearGradient>
<path class="st9" d="M500.625,45.781"/>
<linearGradient id="SVGID_8_" gradientUnits="userSpaceOnUse" x1="629.8842" y1="55.1258" x2="629.8842" y2="55.1258">
	<stop  offset="0" style="stop-color:#ECFF2A"/>
	<stop  offset="0.0469" style="stop-color:#E3FF29"/>
	<stop  offset="0.125" style="stop-color:#C9FF26"/>
	<stop  offset="0.2246" style="stop-color:#9FFF22"/>
	<stop  offset="0.3418" style="stop-color:#66FF1B"/>
	<stop  offset="0.4725" style="stop-color:#1DFF13"/>
	<stop  offset="0.5216" style="stop-color:#00FF10"/>
	<stop  offset="1" style="stop-color:#00BF7C"/>
</linearGradient>
<path class="st10" d="M629.884,55.126"/>
<linearGradient id="SVGID_9_" gradientUnits="userSpaceOnUse" x1="529.9913" y1="82.4737" x2="529.9913" y2="82.4737">
	<stop  offset="0" style="stop-color:#ECFF2A"/>
	<stop  offset="0.089" style="stop-color:#E3FF28"/>
	<stop  offset="0.2371" style="stop-color:#C9FF21"/>
	<stop  offset="0.4247" style="stop-color:#A0FF16"/>
	<stop  offset="0.5216" style="stop-color:#88FF10"/>
	<stop  offset="1" style="stop-color:#00CC00"/>
</linearGradient>
<path class="st11" d="M529.991,82.474"/>
<linearGradient id="SVGID_10_" gradientUnits="userSpaceOnUse" x1="532.8268" y1="106.5755" x2="532.8268" y2="106.5755">
	<stop  offset="0" style="stop-color:#ECFF2A"/>
	<stop  offset="0.089" style="stop-color:#E3FF28"/>
	<stop  offset="0.2371" style="stop-color:#C9FF21"/>
	<stop  offset="0.4247" style="stop-color:#A0FF16"/>
	<stop  offset="0.5216" style="stop-color:#88FF10"/>
	<stop  offset="1" style="stop-color:#00CC00"/>
</linearGradient>
<path class="st12" d="M532.827,106.576"/>
<linearGradient id="SVGID_11_" gradientUnits="userSpaceOnUse" x1="561.5214" y1="127.7175" x2="561.5214" y2="127.7175">
	<stop  offset="0" style="stop-color:#ECFF2A"/>
	<stop  offset="0.089" style="stop-color:#E3FF28"/>
	<stop  offset="0.2371" style="stop-color:#C9FF21"/>
	<stop  offset="0.4247" style="stop-color:#A0FF16"/>
	<stop  offset="0.5216" style="stop-color:#88FF10"/>
	<stop  offset="1" style="stop-color:#00CC00"/>
</linearGradient>
<path class="st13" d="M561.521,127.718"/>
<linearGradient id="SVGID_12_" gradientUnits="userSpaceOnUse" x1="439.5242" y1="51.4335" x2="439.5242" y2="51.4335">
	<stop  offset="0" style="stop-color:#ECFF2A"/>
	<stop  offset="0.089" style="stop-color:#E3FF28"/>
	<stop  offset="0.2371" style="stop-color:#C9FF21"/>
	<stop  offset="0.4247" style="stop-color:#A0FF16"/>
	<stop  offset="0.5216" style="stop-color:#88FF10"/>
	<stop  offset="1" style="stop-color:#00CC00"/>
</linearGradient>
<path class="st14" d="M439.524,51.433"/>
<linearGradient id="SVGID_13_" gradientUnits="userSpaceOnUse" x1="572.321" y1="142.3689" x2="572.321" y2="142.3689">
	<stop  offset="0" style="stop-color:#FFFF31"/>
	<stop  offset="0.0782" style="stop-color:#F6FF2E"/>
	<stop  offset="0.2082" style="stop-color:#DCFF27"/>
	<stop  offset="0.3729" style="stop-color:#B3FF1C"/>
	<stop  offset="0.5216" style="stop-color:#88FF10"/>
	<stop  offset="1" style="stop-color:#00C900"/>
</linearGradient>
<path class="st15" d="M572.321,142.369"/>
<linearGradient id="SVGID_14_" gradientUnits="userSpaceOnUse" x1="494.1442" y1="120.0327" x2="494.1442" y2="120.0327">
	<stop  offset="0" style="stop-color:#FFFF31"/>
	<stop  offset="0.0782" style="stop-color:#F6FF2E"/>
	<stop  offset="0.2082" style="stop-color:#DCFF27"/>
	<stop  offset="0.3729" style="stop-color:#B3FF1C"/>
	<stop  offset="0.5216" style="stop-color:#88FF10"/>
	<stop  offset="1" style="stop-color:#00C900"/>
</linearGradient>
<path class="st16" d="M494.144,120.033"/>
<linearGradient id="SVGID_15_" gradientUnits="userSpaceOnUse" x1="434.0532" y1="52.2632" x2="434.0532" y2="52.2632">
	<stop  offset="0" style="stop-color:#FFFF31"/>
	<stop  offset="0.0782" style="stop-color:#F6FF2E"/>
	<stop  offset="0.2082" style="stop-color:#DCFF27"/>
	<stop  offset="0.3729" style="stop-color:#B3FF1C"/>
	<stop  offset="0.5216" style="stop-color:#88FF10"/>
	<stop  offset="1" style="stop-color:#00C900"/>
</linearGradient>
<path class="st17" d="M434.053,52.263"/>
<linearGradient id="SVGID_16_" gradientUnits="userSpaceOnUse" x1="413.5364" y1="139.8505" x2="413.5364" y2="139.8505">
	<stop  offset="0" style="stop-color:#FFFF31"/>
	<stop  offset="0.0782" style="stop-color:#F6FF2E"/>
	<stop  offset="0.2082" style="stop-color:#DCFF27"/>
	<stop  offset="0.3729" style="stop-color:#B3FF1C"/>
	<stop  offset="0.5216" style="stop-color:#88FF10"/>
	<stop  offset="1" style="stop-color:#00C900"/>
</linearGradient>
<path class="st18" d="M413.536,139.851"/>
<linearGradient id="SVGID_17_" gradientUnits="userSpaceOnUse" x1="530.361" y1="24.2587" x2="530.361" y2="24.2587">
	<stop  offset="0" style="stop-color:#00C5D4"/>
	<stop  offset="0.0463" style="stop-color:#09BED6"/>
	<stop  offset="0.1235" style="stop-color:#23ABDA"/>
	<stop  offset="0.2218" style="stop-color:#4D8DE2"/>
	<stop  offset="0.3376" style="stop-color:#8663EC"/>
	<stop  offset="0.4666" style="stop-color:#CF2DF9"/>
	<stop  offset="0.5216" style="stop-color:#F015FF"/>
	<stop  offset="1" style="stop-color:#D40011"/>
</linearGradient>
<path class="st19" d="M530.361,24.259"/>
</svg>