<!-- Generator: Adobe Illustrator 22.0.0, SVG Export Plug-In  -->
<svg version="1.1"
	 xmlns="http://www.w3.org/2000/svg" xmlns:xlink="http://www.w3.org/1999/xlink" xmlns:a="http://ns.adobe.com/AdobeSVGViewerExtensions/3.0/"
	 x="0px" y="0px" width="644.867px" height="181.563px" viewBox="0 0 644.867 181.563"
	 style="enable-background:new 0 0 644.867 181.563;" xml:space="preserve">
<style type="text/css">
	.st0{fill:url(#SVGID_1_);stroke:#FFFFFF;stroke-miterlimit:10;}
	.st1{fill:#FFFFFF;stroke:#000000;stroke-miterlimit:10;}
	.st2{fill:url(#SVGID_2_);stroke:#FFFFFF;stroke-width:3;stroke-miterlimit:10;}
	.st3{fill:url(#SVGID_3_);stroke:#FFFFFF;stroke-miterlimit:10;}
	.st4{fill:url(#SVGID_4_);stroke:#FFFFFF;stroke-miterlimit:10;}
	.st5{fill:none;}
	.st6{fill:#333333;}
	.st7{fill:url(#SVGID_5_);stroke:#FFFFFF;stroke-width:0.75;stroke-miterlimit:10;}
	.st8{fill:url(#SVGID_6_);stroke:#FFFFFF;stroke-width:3;stroke-miterlimit:10;}
	.st9{fill:url(#SVGID_7_);stroke:#FFFFFF;stroke-miterlimit:10;}
	.st10{fill:url(#SVGID_8_);stroke:#FFFFFF;stroke-miterlimit:10;}
	.st11{fill:url(#SVGID_9_);stroke:#FFFFFF;stroke-miterlimit:10;}
	.st12{fill:url(#SVGID_10_);}
	.st13{fill:#FFFFFF;}
	.st14{fill:url(#SVGID_11_);}
	.st15{fill:url(#SVGID_12_);}
	.st16{fill:#333333;stroke:#FFFFFF;stroke-miterlimit:10;}
	.st17{fill:url(#SVGID_13_);stroke:#FFFFFF;stroke-miterlimit:10;}
	.st18{fill:url(#SVGID_14_);stroke:#FFFFFF;stroke-width:3;stroke-miterlimit:10;}
	.st19{fill:url(#SVGID_15_);stroke:#FFFFFF;stroke-miterlimit:10;}
	.st20{fill:url(#SVGID_16_);stroke:#FFFFFF;stroke-miterlimit:10;}
	.st21{fill:url(#SVGID_17_);stroke:#FFFFFF;stroke-width:0.75;stroke-miterlimit:10;}
	.st22{fill:url(#SVGID_18_);stroke:#FFFFFF;stroke-width:3;stroke-miterlimit:10;}
	.st23{fill:url(#SVGID_19_);stroke:#FFFFFF;stroke-miterlimit:10;}
	.st24{fill:url(#SVGID_20_);stroke:#FFFFFF;stroke-miterlimit:10;}
	.st25{fill:url(#SVGID_21_);stroke:#FFFFFF;stroke-miterlimit:10;}
	.st26{fill:url(#SVGID_22_);}
	.st27{fill:url(#SVGID_23_);}
	.st28{fill:url(#SVGID_24_);}
</style>
<defs>
</defs>
<g>
	<linearGradient id="SVGID_1_" gradientUnits="userSpaceOnUse" x1="17.1476" y1="53.8442" x2="17.1476" y2="53.8442">
		<stop  offset="0" style="stop-color:#ECFF2A"/>
		<stop  offset="0.0469" style="stop-color:#E3FF29"/>
		<stop  offset="0.125" style="stop-color:#C9FF26"/>
		<stop  offset="0.2246" style="stop-color:#9FFF22"/>
		<stop  offset="0.3418" style="stop-color:#66FF1B"/>
		<stop  offset="0.4725" style="stop-color:#1DFF13"/>
		<stop  offset="0.5216" style="stop-color:#00FF10"/>
		<stop  offset="1" style="stop-color:#00BF7C"/>
	</linearGradient>
	<path class="st0" d="M17.148,53.844"/>
	<path class="st1" d="M97.976,68.729"/>
	<linearGradient id="SVGID_2_" gradientUnits="userSpaceOnUse" x1="102.8721" y1="49.8513" x2="102.8721" y2="49.8513">
		<stop  offset="0" style="stop-color:#ECFF2A"/>
		<stop  offset="0.0469" style="stop-color:#E3FF29"/>
		<stop  offset="0.125" style="stop-color:#C9FF26"/>
		<stop  offset="0.2246" style="stop-color:#9FFF22"/>
		<stop  offset="0.3418" style="stop-color:#66FF1B"/>
		<stop  offset="0.4725" style="stop-color:#1DFF13"/>
		<stop  offset="0.5216" style="stop-color:#00FF10"/>
		<stop  offset="1" style="stop-color:#00BF7C"/>
	</linearGradient>
	<path class="st2" d="M102.872,49.851"/>
	<linearGradient id="SVGID_3_" gradientUnits="userSpaceOnUse" x1="117.3899" y1="45.7518" x2="117.3899" y2="45.7518">
		<stop  offset="0" style="stop-color:#ECFF2A"/>
		<stop  offset="0.089" style="stop-color:#E3FF28"/>
		<stop  offset="0.2371" style="stop-color:#C9FF21"/>
		<stop  offset="0.4247" style="stop-color:#A0FF16"/>
		<stop  offset="0.5216" style="stop-color:#88FF10"/>
		<stop  offset="1" style="stop-color:#00CC00"/>
	</linearGradient>
	<path class="st3" d="M117.39,45.752"/>
	<linearGradient id="SVGID_4_" gradientUnits="userSpaceOnUse" x1="111.5394" y1="46.6391" x2="111.5394" y2="46.6391">
		<stop  offset="0" style="stop-color:#FFFF31"/>
		<stop  offset="0.0782" style="stop-color:#F6FF2E"/>
		<stop  offset="0.2082" style="stop-color:#DCFF27"/>
		<stop  offset="0.3729" style="stop-color:#B3FF1C"/>
		<stop  offset="0.5216" style="stop-color:#88FF10"/>
		<stop  offset="1" style="stop-color:#00C900"/>
	</linearGradient>
	<path class="st4" d="M111.539,46.639"/>
	<g>
		<rect y="35.384" class="st5" width="595.192" height="107.722"/>
		<path class="st6" d="M18.679,40.012h22.708c14.923,0,24.664,9.688,24.664,26.237c0,16.538-8.727,28.073-26.391,28.073H25.143
			v44.153h-6.464V40.012z M25.143,88.359h13.908c13.085,0,20.252-7.178,20.252-22.115c0-11.529-6.052-20.265-18.816-20.265H25.143
			V88.359z"/>
		<path class="st6" d="M189.7,88.308c0,32.041-6.86,51.478-27.298,51.478c-19.697,0-26.853-18.582-26.853-51.058
			c0-32.313,8.465-50.023,27.153-50.023C182.406,38.704,189.7,55.457,189.7,88.308z M142.305,88.442
			c0,31.061,7.009,45.366,20.389,45.366c13.675,0,20.25-14.283,20.25-45.083c0-32.323-7.145-44.04-20.392-44.04
			C149.592,44.685,142.305,58.543,142.305,88.442z"/>
		<path class="st6" d="M277.106,138.476l-19.787-98.464h6.772c8.425,42.518,15.741,79.146,16.904,89.587h0.145
			c1.054-10.313,13.371-64.934,18.407-89.587h6.987c5.031,24.467,17.21,80.25,18.113,89.426h0.289
			c2.027-15.158,13.472-64.688,18.479-89.426h6.603l-21.652,98.464h-7.732c-4.75-23.644-16.063-77.199-17.677-89.209h-0.147
			c-1.899,13.715-13.079,65.033-18.255,89.209H277.106z"/>
		<path class="st6" d="M459.893,89.008h-33.645v43.481h37.124l-1.037,5.986H419.79V40.012h41.832v5.991h-35.374v37.016h33.645
			V89.008z"/>
		<path class="st6" d="M540.495,91.027v47.449h-6.461V40.012h22.861c15.664,0,23.381,9.396,23.381,24.488
			c0,15.02-6.955,21.377-13.432,23.401c10.067,3.048,12.409,12.101,12.409,25.429v3.904c0,7.881,0.152,15.894,1.443,21.241h-6.734
			c-1.305-4.482-1.31-13.847-1.31-21.527v-3.189c0-14.572-2.754-22.732-17.424-22.732H540.495z M540.495,85.06h15.315
			c12.821,0,17.579-8.162,17.579-20.543c0-10.793-4.897-18.538-16.976-18.538h-15.919V85.06z"/>
	</g>
	<g>
		<linearGradient id="SVGID_5_" gradientUnits="userSpaceOnUse" x1="199.266" y1="91.045" x2="199.266" y2="91.045">
			<stop  offset="0" style="stop-color:#000000"/>
			<stop  offset="0.022" style="stop-color:#090408"/>
			<stop  offset="0.0586" style="stop-color:#230F1D"/>
			<stop  offset="0.1053" style="stop-color:#4D2040"/>
			<stop  offset="0.1603" style="stop-color:#863871"/>
			<stop  offset="0.2215" style="stop-color:#CF56AE"/>
			<stop  offset="0.259" style="stop-color:#FF6AD6"/>
			<stop  offset="0.2935" style="stop-color:#ED74DA"/>
			<stop  offset="0.3628" style="stop-color:#BE8DE4"/>
			<stop  offset="0.4597" style="stop-color:#72B5F4"/>
			<stop  offset="0.5213" style="stop-color:#3FD1FF"/>
			<stop  offset="0.7575" style="stop-color:#FFFFFF"/>
			<stop  offset="1" style="stop-color:#000000"/>
		</linearGradient>
		<path class="st7" d="M199.266,91.045"/>
		<linearGradient id="SVGID_6_" gradientUnits="userSpaceOnUse" x1="205.3321" y1="93.1288" x2="205.3321" y2="93.1288">
			<stop  offset="0" style="stop-color:#ECFF2A"/>
			<stop  offset="0.0469" style="stop-color:#E3FF29"/>
			<stop  offset="0.125" style="stop-color:#C9FF26"/>
			<stop  offset="0.2246" style="stop-color:#9FFF22"/>
			<stop  offset="0.3418" style="stop-color:#66FF1B"/>
			<stop  offset="0.4725" style="stop-color:#1DFF13"/>
			<stop  offset="0.5216" style="stop-color:#00FF10"/>
			<stop  offset="1" style="stop-color:#00BF7C"/>
		</linearGradient>
		<path class="st8" d="M205.332,93.129"/>
		<linearGradient id="SVGID_7_" gradientUnits="userSpaceOnUse" x1="96.6567" y1="7.3723" x2="96.6567" y2="7.3723">
			<stop  offset="0" style="stop-color:#ECFF2A"/>
			<stop  offset="0.089" style="stop-color:#E3FF28"/>
			<stop  offset="0.2371" style="stop-color:#C9FF21"/>
			<stop  offset="0.4247" style="stop-color:#A0FF16"/>
			<stop  offset="0.5216" style="stop-color:#88FF10"/>
			<stop  offset="1" style="stop-color:#00CC00"/>
		</linearGradient>
		<path class="st9" d="M96.657,7.372"/>
		<linearGradient id="SVGID_8_" gradientUnits="userSpaceOnUse" x1="209.2582" y1="91.6738" x2="209.2582" y2="91.6738">
			<stop  offset="0" style="stop-color:#FFFF31"/>
			<stop  offset="0.0782" style="stop-color:#F6FF2E"/>
			<stop  offset="0.2082" style="stop-color:#DCFF27"/>
			<stop  offset="0.3729" style="stop-color:#B3FF1C"/>
			<stop  offset="0.5216" style="stop-color:#88FF10"/>
			<stop  offset="1" style="stop-color:#00C900"/>
		</linearGradient>
		<path class="st10" d="M209.258,91.674"/>
		<linearGradient id="SVGID_9_" gradientUnits="userSpaceOnUse" x1="102.8097" y1="22.1261" x2="102.8097" y2="22.1261">
			<stop  offset="0" style="stop-color:#FFFF31"/>
			<stop  offset="0.0782" style="stop-color:#F6FF2E"/>
			<stop  offset="0.2082" style="stop-color:#DCFF27"/>
			<stop  offset="0.3729" style="stop-color:#B3FF1C"/>
			<stop  offset="0.5216" style="stop-color:#88FF10"/>
			<stop  offset="1" style="stop-color:#00C900"/>
		</linearGradient>
		<path class="st11" d="M102.81,22.126"/>
		<linearGradient id="SVGID_10_" gradientUnits="userSpaceOnUse" x1="87.8773" y1="87.5613" x2="232.702" y2="87.5613">
			<stop  offset="0" style="stop-color:#0081BF"/>
			<stop  offset="0.0568" style="stop-color:#0476BD"/>
			<stop  offset="0.1554" style="stop-color:#115AB9"/>
			<stop  offset="0.2832" style="stop-color:#242CB3"/>
			<stop  offset="0.3821" style="stop-color:#3504AD"/>
			<stop  offset="0.9769" style="stop-color:#8C00AA"/>
		</linearGradient>
		<circle class="st12" cx="160.29" cy="87.561" r="72.412"/>
		<path class="st13" d="M217.4,87.446c0,31.888-25.851,57.738-57.741,57.738c-32.741,0-57.764-27.85-57.741-57.738
			c0.02-26.567,19.557-47.933,39.923-54.937c7.088-2.437,29.71-1.534,37.154,1.58C197.446,41.807,217.4,61.676,217.4,87.446z"/>
		<linearGradient id="SVGID_11_" gradientUnits="userSpaceOnUse" x1="114.2341" y1="87.6168" x2="205.0159" y2="87.6168">
			<stop  offset="0" style="stop-color:#0081BF"/>
			<stop  offset="0.0568" style="stop-color:#0476BD"/>
			<stop  offset="0.1554" style="stop-color:#115AB9"/>
			<stop  offset="0.2832" style="stop-color:#242CB3"/>
			<stop  offset="0.3821" style="stop-color:#3504AD"/>
			<stop  offset="0.9769" style="stop-color:#8C00AA"/>
		</linearGradient>
		<circle class="st14" cx="159.625" cy="87.617" r="45.391"/>
		<linearGradient id="SVGID_12_" gradientUnits="userSpaceOnUse" x1="142.5851" y1="36.2187" x2="177.4776" y2="36.2187">
			<stop  offset="0" style="stop-color:#0081BF"/>
			<stop  offset="0.0568" style="stop-color:#0476BD"/>
			<stop  offset="0.1554" style="stop-color:#115AB9"/>
			<stop  offset="0.2832" style="stop-color:#242CB3"/>
			<stop  offset="0.3821" style="stop-color:#3504AD"/>
			<stop  offset="0.9769" style="stop-color:#8C00AA"/>
		</linearGradient>
		<path class="st15" d="M158.526,72.437h3.012c8.767,0,15.94-7.173,15.94-15.94V15.94c0-8.767-7.173-15.94-15.94-15.94l-3.012,0
			c-8.767,0-15.94,7.173-15.94,15.94v40.557C142.585,65.264,149.758,72.437,158.526,72.437z"/>
		<path class="st13" d="M160.996,64.922h-1.54c-4.482,0-8.149-3.667-8.149-8.149V18.184c0-4.482,3.667-8.149,8.149-8.149h1.54
			c4.482,0,8.149,3.667,8.149,8.149v38.589C169.145,61.255,165.478,64.922,160.996,64.922z"/>
	</g>
	<path class="st16" d="M206.418,152.755c-1.657,3.213-3.926,6.778-7.033,10.142c-0.666,0.721-1.33,1.389-1.987,2.01
		c-3.56,0.627-7.509,1.102-11.786,1.274c-4.909,0.198-9.387-0.036-13.355-0.49c11.364-0.433,17.11-4.036,20.267-7.363
		c2.88-3.036,6.306-5.431,8.744-8.968c1.228-1.781,3.189-4.976,5.414-4.75c0.21,0.021,0.866,0.099,1.306,0.664
		C208.959,146.522,208.391,149.518,206.418,152.755z"/>
	<path class="st16" d="M85.62,129.224c1.885,7.27,4.679,13.249,7.363,17.856c2.429,4.377,6.655,10.796,13.577,16.922
		c1.948,1.724,7.565,6.482,16.135,10.429c10.557,4.862,19.615,5.738,25.973,6.296c4.213,0.37,14.352,0.964,26.563-1.574
		c5.747-1.195,9.872-2.651,15.741-4.722c4.324-1.526,6.538-2.513,8.854-3.935c2.139-1.313,4.463-3.057,5.987-4.202
		c1.487-1.116,2.387-1.85,3.654-2.882c2.567-2.092,3.283-2.82,3.817-3.415c1.523-1.697,2.72-3.023,2.348-4.376
		c-0.317-1.154-1.591-1.699-1.796-1.782c-1.844-0.754-3.536,0.516-3.62,0.581c-5.246,2.664-11.827,5.379-19.641,7.301
		c-2.54,0.625-7.41,1.707-13.702,2.284c-5.51,0.505-12.363,1.132-20.923-0.521c-4.951-0.956-10.685-2.126-16.519-6.309
		c-3.292-2.36-10.09-7.233-8.884-12.092c0.883-3.558,5.809-6.103,11.745-6.525c0.882-0.204,2.867-0.801,3.873-2.563
		c0.12-0.21,0.826-1.495,0.551-2.363c-1.094-3.452-19.049-4.611-30.849,4.6c-2.483,1.938-4.136,3.901-4.99,4.995
		c-2.708-1.352-6.627-3.717-10.396-7.696c-2.997-3.163-4.927-6.319-6.146-8.718c-1.471-2.891-3.167-6.734-4.567-11.419
		c-1.225-4.097-1.759-7.342-1.957-8.482c-1.864-10.699,0.232-18.502-0.326-18.596c-0.553-0.093-3.217,7.766-3.915,17.944
		C82.808,117.341,84.744,125.845,85.62,129.224z"/>
</g>
</svg>